<?xml version="1.0" encoding="UTF-8" standalone="no"?>
<!-- Created with Inkscape (http://www.inkscape.org/) -->

<svg
   xmlns:dc="http://purl.org/dc/elements/1.1/"
   xmlns:cc="http://creativecommons.org/ns#"
   xmlns:rdf="http://www.w3.org/1999/02/22-rdf-syntax-ns#"
   xmlns:svg="http://www.w3.org/2000/svg"
   xmlns="http://www.w3.org/2000/svg"
   xmlns:sodipodi="http://sodipodi.sourceforge.net/DTD/sodipodi-0.dtd"
   xmlns:inkscape="http://www.inkscape.org/namespaces/inkscape"
   width="110mm"
   height="130mm"
   viewBox="0 0 389.76378 460.62993"
   id="svg5316"
   version="1.1"
   inkscape:version="0.91 r13725"
   sodipodi:docname="biere.svg">
  <defs
     id="defs5318" />
  <sodipodi:namedview
     id="base"
     pagecolor="#ffffff"
     bordercolor="#666666"
     borderopacity="1.0"
     inkscape:pageopacity="0.0"
     inkscape:pageshadow="2"
     inkscape:zoom="0.98994949"
     inkscape:cx="-52.597391"
     inkscape:cy="167.60098"
     inkscape:document-units="px"
     inkscape:current-layer="layer1"
     showgrid="false"
     inkscape:window-width="1366"
     inkscape:window-height="692"
     inkscape:window-x="0"
     inkscape:window-y="24"
     inkscape:window-maximized="1"
     fit-margin-top="0"
     fit-margin-left="0"
     fit-margin-right="0"
     fit-margin-bottom="0" />
  <metadata
     id="metadata5321">
    <rdf:RDF>
      <cc:Work
         rdf:about="">
        <dc:format>image/svg+xml</dc:format>
        <dc:type
           rdf:resource="http://purl.org/dc/dcmitype/StillImage" />
        <dc:title></dc:title>
        <cc:license
           rdf:resource="http://creativecommons.org/publicdomain/zero/1.0/" />
      </cc:Work>
      <cc:License
         rdf:about="http://creativecommons.org/publicdomain/zero/1.0/">
        <cc:permits
           rdf:resource="http://creativecommons.org/ns#Reproduction" />
        <cc:permits
           rdf:resource="http://creativecommons.org/ns#Distribution" />
        <cc:permits
           rdf:resource="http://creativecommons.org/ns#DerivativeWorks" />
      </cc:License>
    </rdf:RDF>
  </metadata>
  <g
     inkscape:label="Calque 1"
     inkscape:groupmode="layer"
     id="layer1"
     transform="translate(-53.424873,-449.09921)">
    <path
       sodipodi:nodetypes="zzccccccz"
       inkscape:connector-curvature="0"
       id="path4870"
       d="m 193.61671,622.86689 c -14.63207,8.75833 -32.75239,22.58191 -46.22332,31.69473 -13.4709,9.11283 -24.71351,13.80926 -29.94789,27.13379 -2.67224,5.58338 -0.25055,16.60362 5.53884,19.95952 8.09574,4.71771 17.88119,3.04126 26.53381,0.25119 18.95706,-7.72617 31.86711,-24.1936 45.43767,-38.77381 7.42167,-8.13149 15.7843,-15.29745 23.53949,-23.09581 6.94062,-6.69732 12.8591,-14.39842 12.59827,-25.50071 -7.94829,-1.09079 -22.84481,-0.42725 -37.47687,8.3311 z"
       style="display:inline;fill:#ffeec8;fill-opacity:1;fill-rule:evenodd;stroke:#707070;stroke-width:1;stroke-linecap:butt;stroke-linejoin:miter;stroke-miterlimit:4;stroke-dasharray:none;stroke-opacity:1" />
    <path
       sodipodi:nodetypes="ccczcczzcccccczcccczzccc"
       inkscape:connector-curvature="0"
       id="path4872"
       d="m 204.09587,623.53535 c 9.30992,-3.77266 14.70111,-8.82513 26.07028,-9.2231 15.55268,-2.03437 22.43376,-10.44338 24.24158,-7.80384 -0.49208,21.40681 14.82453,31.6275 25.70894,31.3026 10.88442,-0.32489 29.79327,-8.64662 27.28333,-30.4381 3.08542,-1.3739 7.09836,14.25537 25.80871,20.59244 12.38654,6.69587 22.93085,7.70817 28.90085,20.05352 5.97,12.34535 6.96035,36.73205 9.43924,51.65808 2.47894,14.92603 4.80642,38.38856 8.77559,56.26237 1.04254,15.06589 -8.22882,27.04672 -16.5837,30.24894 -6.82092,-1.90688 -17.29579,-8.90523 -23.23995,-17.681 -5.04193,-12.92896 -4.39458,-19.75217 -4.02146,-34.34747 1.37217,-17.00225 5.32706,-35.01208 9.18279,-51.45816 -4.29266,16.00682 -6.86952,28.56051 -8.79369,44.36146 -2.45776,25.5536 0.79527,28.56035 -3.61629,57.66685 -4.41155,29.10654 2.67678,53.58773 5.22023,66.27707 -33.96032,12.49362 -116.88353,9.99503 -155.38816,-3.43372 2.99577,-30.23109 19.01828,-55.60809 19.03911,-82.80771 -0.035,-12.82061 0.92017,-34.14688 -4.94865,-54.74745 -5.74719,7.52716 -14.64137,16.93915 -24.64061,24.02606 -9.99929,7.0869 -22.04729,23.16948 -35.41437,20.37569 -13.36707,-2.79379 -7.56841,-24.8709 1.55233,-36.74022 9.16726,-12.63509 27.82469,-44.04051 36.38231,-54.73303 10.57429,-16.96467 17.18125,-28.34813 29.04159,-39.41128 z"
       style="display:inline;opacity:1;fill:#ffca4f;fill-opacity:1;fill-rule:evenodd;stroke:#000000;stroke-width:1;stroke-linecap:butt;stroke-linejoin:miter;stroke-miterlimit:4;stroke-dasharray:none;stroke-opacity:1" />
    <path
       sodipodi:nodetypes="cccccccccccccccczczccccczcc"
       inkscape:connector-curvature="0"
       id="path4874"
       d="m 344.56669,720.86496 c 5.73439,10.50206 -5.75187,25.87517 -14.75666,21.25295 -3.99951,-2.94316 -10.48453,-15.85116 -14.88866,-18.94492 -6.75494,0.42325 -13.04298,-0.70826 -19.99384,-0.64134 -4.80879,0.55851 -6.01812,-2.56686 -9.39329,-3.70788 -5.03327,-1.88037 -11.4477,-1.35576 -20.23255,-1.61812 -4.42648,-0.48469 -5.23281,-6.37366 -0.63343,-6.82123 7.64913,-2.01025 16.08021,-1.18458 22.62303,-0.77678 -7.88041,-1.47083 -16.82396,-1.29761 -29.31946,2.1453 -6.74073,1.68261 -8.65748,-6.09447 -3.04946,-7.30206 5.35477,-1.83635 10.25145,-2.19788 15.95032,-2.61088 5.48074,-0.40783 10.62159,0.36234 16.32924,-0.36675 -9.32972,0.21908 -17.74712,-1.32031 -31.2179,2.64166 -11.89103,1.65924 -12.12242,-6.6101 -3.32893,-8.01666 13.60689,-2.8617 22.02517,-3.94712 34.01048,-3.38507 -13.41118,-0.82688 -19.67281,0.20353 -31.37543,2.68168 -6.48722,-1.47848 -4.43917,-6.14768 2.41855,-7.53391 6.85771,-1.38624 15.91125,-1.66985 24.12989,-2.1201 -3.44539,0.53941 -6.26396,0.18217 -10.60279,0.49416 -4.33879,0.31199 -10.39958,2.01698 -13.12651,-0.99777 -1.83787,-2.22934 0.14703,-4.36443 3.74079,-3.16507 6.91167,-0.54988 10.53916,-0.13141 16.22286,-0.0216 5.5943,-0.96295 12.3894,0.0304 16.1489,3.08889 3.97688,1.84618 8.41584,3.67567 12.59777,4.97214 6.00552,1.39868 19.06098,7.08238 22.30556,9.66342 3.24458,2.58107 8.5802,10.32537 15.44152,21.09004 z"
       style="display:inline;fill:#fff5f0;fill-opacity:1;fill-rule:evenodd;stroke:#000000;stroke-width:1;stroke-linecap:butt;stroke-linejoin:miter;stroke-miterlimit:4;stroke-dasharray:none;stroke-opacity:1" />
    <path
       sodipodi:nodetypes="czzccccczccc"
       inkscape:connector-curvature="0"
       id="path4877"
       d="m 332.34316,702.36716 c 4.14549,4.73231 4.09691,11.34174 4.38002,16.68637 0.28314,5.3446 -2.71909,11.36546 -7.40343,12.46686 -4.68433,1.10143 -7.76943,0.07 -11.22903,-4.57641 -4.42032,0.1907 2.23464,10.97764 4.30775,16.12907 2.28195,3.89129 6.68212,10.14051 9.58713,13.28483 4.82409,8.93768 8.22592,12.3165 15.32934,19.95357 6.71234,5.64471 10.88463,9.33687 17.5375,8.9577 5.75077,-3.33746 8.72642,-6.62134 11.15781,-11.46236 2.43134,-4.841 3.89542,-10.73774 3.57883,-17.34554 -0.47705,-12.97383 -14.29599,-20.21176 -21.98465,-29.79536 -3.61282,-4.5991 -25.55442,-30.03087 -25.26127,-24.29873 z"
       style="display:inline;fill:#ffca4f;fill-opacity:1;fill-rule:evenodd;stroke:#000000;stroke-width:1;stroke-linecap:butt;stroke-linejoin:miter;stroke-miterlimit:4;stroke-dasharray:none;stroke-opacity:1" />
    <path
       sodipodi:nodetypes="ccccc"
       inkscape:connector-curvature="0"
       id="path4879"
       d="m 217.56369,551.28054 c 2.93919,0.9672 5.18243,1.21188 3.97275,5.90864 -0.86782,2.95056 -8.18018,3.03437 -10.92897,1.28211 -2.42236,-1.56415 -4.52411,-4.88505 -5.44217,-7.57045 3.00083,-0.78918 10.40973,-3.27726 12.39839,0.3797 z"
       style="display:inline;fill:#fff5f0;fill-opacity:1;fill-rule:evenodd;stroke:#707070;stroke-width:1;stroke-linecap:butt;stroke-linejoin:miter;stroke-miterlimit:4;stroke-dasharray:none;stroke-opacity:1" />
    <path
       sodipodi:nodetypes="cccczccccccccccccccccccc"
       inkscape:connector-curvature="0"
       id="path4881"
       d="m 166.51342,597.67434 c 3.51277,-4.92463 8.04831,-9.16005 11.30848,-15.73072 0.50474,-4.40122 0.52596,-11.72721 0.23652,-16.25168 -0.58464,-8.02593 -1.12596,-18.15419 -0.17878,-19.75489 1.70367,-3.21387 7.38369,-3.17511 12.66572,-4.94153 5.28202,-1.76644 10.54637,-3.05946 16.26999,-1.92419 1.88065,4.39447 1.76688,6.4899 -2.98,7.30447 -4.90936,0.84539 -8.9537,2.01925 -13.35192,3.49435 6.22786,-1.92037 15.16434,-3.79775 19.30791,-3.21799 1.57174,2.56038 2.64623,8.02062 -1.56339,9.0881 -4.63067,1.54488 -7.96158,1.69274 -13.09632,3.78387 5.80316,-1.49532 17.39443,-5.86971 17.66827,-1.80575 0.9713,4.06326 0.88875,7.63358 -4.16849,8.33204 -3.07754,0.61071 -6.38624,1.72207 -8.97711,2.83333 4.23472,-1.23275 8.08701,-3.13475 12.57674,-2.82977 1.02959,2.06639 1.85902,6.02982 -0.0547,9.05089 -2.78775,2.84895 -8.11113,1.06098 -10.30968,4.20185 0.39334,4.36947 1.87221,8.46101 0.35951,12.88862 -1.73917,3.55681 -3.83526,4.69964 -6.44225,6.703 -2.54161,2.41795 -4.8886,7.98739 -6.60185,11.18818 -1.62424,2.89284 -5.43518,10.47413 -6.75849,13.50659 -5.65754,0.83324 -19.10194,-3.70922 -25.74671,-8.73168 2.39086,-4.74147 6.53405,-12.22695 9.83665,-17.18709 z"
       style="display:inline;fill:#fff5f0;fill-opacity:1;fill-rule:evenodd;stroke:#707070;stroke-width:1;stroke-linecap:butt;stroke-linejoin:miter;stroke-miterlimit:4;stroke-dasharray:none;stroke-opacity:1" />
    <path
       sodipodi:nodetypes="zzcczczczzcz"
       inkscape:connector-curvature="0"
       id="path4883"
       d="m 169.52923,609.0204 c 2.82575,2.1727 8.67382,3.52157 11.83161,3.47299 3.15778,-0.0485 7.49209,-1.55193 9.60918,-4.84183 3.2543,-0.29591 -5.51248,14.54425 -7.71022,19.74025 -7.86963,16.90104 -12.35342,29.51193 -17.81268,41.5763 -5.45921,12.06436 -8.71457,25.18921 -14.74201,32.40912 -7.99396,3.82314 -18.82788,4.52935 -24.94445,1.97855 -6.11661,-2.55078 -9.76468,-9.77935 -9.54294,-14.83175 0.95092,-13.65876 7.12934,-24.11183 11.63907,-34.83966 4.50973,-10.72787 14.10777,-26.57662 19.56478,-32.39282 5.45705,-5.81618 14.1973,-27.94663 17.94611,-22.90788 -2.5718,6.98941 1.3358,8.46399 4.16155,10.63673 z"
       style="display:inline;opacity:1;fill:#ffeec8;fill-opacity:1;fill-rule:evenodd;stroke:#707070;stroke-width:1;stroke-linecap:butt;stroke-linejoin:miter;stroke-miterlimit:4;stroke-dasharray:none;stroke-opacity:1" />
    <path
       sodipodi:nodetypes="cc"
       inkscape:connector-curvature="0"
       id="path4885"
       d="m 178.05842,548.70795 c 0.26275,2.22505 1.40437,4.74806 5.27393,3.75432"
       style="display:inline;fill:none;fill-rule:evenodd;stroke:#707070;stroke-width:1;stroke-linecap:butt;stroke-linejoin:miter;stroke-miterlimit:4;stroke-dasharray:none;stroke-opacity:1" />
    <path
       sodipodi:nodetypes="cc"
       inkscape:connector-curvature="0"
       id="path4887"
       d="m 179.9356,555.59077 c -0.28724,2.48173 2.25081,5.42743 5.18456,5.89965"
       style="display:inline;fill:none;fill-rule:evenodd;stroke:#707070;stroke-width:1;stroke-linecap:butt;stroke-linejoin:miter;stroke-miterlimit:4;stroke-dasharray:none;stroke-opacity:1" />
    <path
       sodipodi:nodetypes="cc"
       inkscape:connector-curvature="0"
       id="path4889"
       d="m 184.67314,564.44031 c -0.27349,3.12418 1.05901,4.95954 3.48615,5.4527"
       style="display:inline;fill:none;fill-rule:evenodd;stroke:#707070;stroke-width:1;stroke-linecap:butt;stroke-linejoin:miter;stroke-miterlimit:4;stroke-dasharray:none;stroke-opacity:1" />
    <path
       sodipodi:nodetypes="cc"
       inkscape:connector-curvature="0"
       id="path4891"
       d="m 188.785,573.11106 c -0.41409,2.61195 2.71421,5.02653 5.81027,5.00576"
       style="display:inline;fill:none;fill-rule:evenodd;stroke:#707070;stroke-width:1;stroke-linecap:butt;stroke-linejoin:miter;stroke-miterlimit:4;stroke-dasharray:none;stroke-opacity:1" />
    <path
       sodipodi:nodetypes="cc"
       inkscape:connector-curvature="0"
       id="path4893"
       d="m 207.00943,576.84383 c -5.38242,-1.37711 -0.47843,-1.35903 2.42439,-1.76608"
       style="display:inline;fill:none;fill-rule:evenodd;stroke:#707070;stroke-width:1;stroke-linecap:butt;stroke-linejoin:miter;stroke-miterlimit:4;stroke-dasharray:none;stroke-opacity:1" />
    <path
       sodipodi:nodetypes="ccc"
       inkscape:connector-curvature="0"
       id="path4895"
       d="m 250.46314,697.18262 c 4.35296,0.20074 3.58976,7.38808 -1.609,6.2572 -4.27774,-1.40136 -1.35354,-5.98017 1.609,-6.2572 z"
       style="display:inline;fill:#fff5f0;fill-opacity:1;fill-rule:evenodd;stroke:#000000;stroke-width:1;stroke-linecap:butt;stroke-linejoin:miter;stroke-miterlimit:4;stroke-dasharray:none;stroke-opacity:1" />
    <path
       sodipodi:nodetypes="ccc"
       inkscape:connector-curvature="0"
       id="path4897"
       d="m 255.73711,704.95943 c 2.92506,-0.96077 4.15242,4.82394 1.87715,6.52535 -6.1725,0.94984 -7.80964,-4.74172 -1.87715,-6.52535 z"
       style="display:inline;fill:#fff5f0;fill-opacity:1;fill-rule:evenodd;stroke:#000000;stroke-width:1;stroke-linecap:butt;stroke-linejoin:miter;stroke-miterlimit:4;stroke-dasharray:none;stroke-opacity:1" />
    <path
       sodipodi:nodetypes="ccc"
       inkscape:connector-curvature="0"
       id="path4899"
       d="m 264.229,711.57416 c 2.74564,-0.59825 2.84639,4.79019 -0.62573,4.29068 -2.66263,0.22043 -2.61638,-4.55635 0.62573,-4.29068 z"
       style="display:inline;fill:#fff5f0;fill-opacity:1;fill-rule:evenodd;stroke:#000000;stroke-width:1;stroke-linecap:butt;stroke-linejoin:miter;stroke-miterlimit:4;stroke-dasharray:none;stroke-opacity:1" />
    <path
       sodipodi:nodetypes="ccc"
       inkscape:connector-curvature="0"
       id="path4901"
       d="m 255.91586,695.0373 c -2.94549,0.94453 -5.49344,-2.80122 -3.75434,-4.38006 3.86287,-3.77586 8.61438,1.58885 3.75434,4.38006 z"
       style="display:inline;fill:#fff5f0;fill-opacity:1;fill-rule:evenodd;stroke:#000000;stroke-width:1;stroke-linecap:butt;stroke-linejoin:miter;stroke-miterlimit:4;stroke-dasharray:none;stroke-opacity:1" />
    <path
       sodipodi:nodetypes="cc"
       inkscape:connector-curvature="0"
       id="path4903"
       d="m 314.92773,723.26332 c 2.77771,-0.22965 7.3078,0.0781 8.83414,1.54038"
       style="display:inline;fill:none;fill-rule:evenodd;stroke:#000000;stroke-width:1;stroke-linecap:butt;stroke-linejoin:miter;stroke-miterlimit:4;stroke-dasharray:none;stroke-opacity:1" />
    <path
       sodipodi:nodetypes="ccccc"
       inkscape:connector-curvature="0"
       id="path4905"
       d="m 245.54679,551.8367 c -2.75271,-2.10039 -0.55745,5.31008 0.43347,9.3364 0.89688,4.46615 0.7853,6.79352 2.60575,9.25643 2.36452,1.45549 0.42579,-8.17092 0.89391,-5.89964 -0.57866,-4.67818 -1.68879,-9.20876 -3.93313,-12.69319 z"
       style="display:inline;fill:#fff5f0;fill-opacity:1;fill-rule:evenodd;stroke:#000000;stroke-width:1;stroke-linecap:butt;stroke-linejoin:miter;stroke-miterlimit:4;stroke-dasharray:none;stroke-opacity:1" />
    <path
       sodipodi:nodetypes="ccczc"
       inkscape:connector-curvature="0"
       id="path4907"
       d="m 299.00121,555.23347 c 1.20275,-3.96582 2.39836,-8.90006 6.59306,-9.51857 3.59068,-0.0873 2.58436,4.25229 1.8727,6.94876 -0.11098,4.48888 -2.06792,13.92678 -6.35482,14.66346 -4.28687,0.73667 -3.09581,-9.21131 -2.11094,-12.09365 z"
       style="display:inline;fill:#fff5f0;fill-opacity:1;fill-rule:evenodd;stroke:#000000;stroke-width:1;stroke-linecap:butt;stroke-linejoin:miter;stroke-miterlimit:4;stroke-dasharray:none;stroke-opacity:1" />
    <path
       sodipodi:nodetypes="ccczzzzzzzccc"
       inkscape:connector-curvature="0"
       id="path4909"
       d="m 249.94067,618.66894 c -8.31423,14.78164 7.14963,34.36889 23.30847,38.76584 13.7285,2.67214 23.82312,-8.43008 30.67766,-19.27925 6.17289,-8.9146 6.58949,-26.38002 2.74001,-30.60413 -3.84947,-4.22411 -7.19059,-13.19223 -7.46115,-16.6606 -0.27057,-3.46836 1.02219,-12.36585 0.91946,-16.76135 -0.10277,-4.39552 -0.32161,-11.0185 0.2713,-18.33659 0.59291,-7.31809 3.52702,-11.41424 3.48081,-23.37241 -0.0462,-11.95817 -7.64588,-30.38377 -32.92521,-28.55096 -25.27933,1.8328 -32.57228,23.61853 -28.80196,36.34669 3.77028,12.72817 7.9653,36.56886 13.1888,46.71707 0.80249,2.25162 0.57665,9.0114 0.64432,14.68817 0.0676,5.67678 -3.5073,11.32082 -6.04251,17.04752 z"
       style="display:inline;fill:#fff5f0;fill-opacity:1;fill-rule:evenodd;stroke:#000000;stroke-width:1;stroke-linecap:butt;stroke-linejoin:miter;stroke-miterlimit:4;stroke-dasharray:none;stroke-opacity:1" />
    <path
       sodipodi:nodetypes="czcc"
       inkscape:connector-curvature="0"
       id="path4915"
       d="m 246.53831,547.28424 c 1.74984,-2.15293 3.50715,-3.40877 6.33495,-3.9675 2.82783,-0.55872 5.33972,2.38236 9.08639,1.73083 -5.53915,-8.0512 -14.37792,-4.177 -15.42134,2.23667 z"
       style="display:inline;fill:#361d00;fill-opacity:1;fill-rule:evenodd;stroke:#000000;stroke-width:1;stroke-linecap:butt;stroke-linejoin:miter;stroke-miterlimit:4;stroke-dasharray:none;stroke-opacity:1" />
    <path
       sodipodi:nodetypes="czzczzzzzczzcccc"
       inkscape:connector-curvature="0"
       id="path4911"
       d="m 286.11838,512.7604 c -0.51503,6.69779 -8.01157,5.74624 -11.82276,6.70449 -3.81118,0.95825 -10.60017,6.78456 -15.12001,11.72011 -4.51984,4.93555 -11.96063,13.5081 -13.63447,20.58353 -4.04752,-1.1607 -5.16309,-1.31995 -6.75102,-4.66595 -1.58789,-3.346 -2.50577,-8.99514 -1.87008,-15.07504 0.63569,-6.07992 3.64722,-14.61394 8.09045,-19.34305 4.44323,-4.72911 8.24561,-8.19532 14.12341,-10.72664 5.87779,-2.53131 10.81826,-2.5275 15.55514,-1.96841 4.73687,0.5591 9.36874,3.13922 11.36157,4.7818 3.76961,-1.52477 8.87536,2.32023 12.39739,5.78158 3.52199,3.46135 7.41485,9.15909 8.8287,13.97224 1.41384,4.81317 1.1571,16.07277 -0.88939,21.10085 -2.5613,-0.10527 -4.82763,1.74352 -6.01531,5.3318 -0.0562,-9.27856 -3.1859,-9.81499 -4.62675,-15.88616 -2.89494,-20.66422 -8.95901,-13.70048 -9.62687,-22.31115 z"
       style="display:inline;fill:#361d00;fill-opacity:1;fill-rule:evenodd;stroke:#000000;stroke-width:1;stroke-linecap:butt;stroke-linejoin:miter;stroke-miterlimit:4;stroke-dasharray:none;stroke-opacity:1" />
    <path
       sodipodi:nodetypes="cccc"
       inkscape:connector-curvature="0"
       id="path4913"
       d="m 292.56522,540.57374 c -2.69847,-2.95323 -9.1294,-1.54914 -11.95639,0.36653 -1.61826,1.16136 -6.77053,3.16665 -8.42422,1.33185 7.47424,-8.06797 19.60104,-8.80401 20.38061,-1.69838 z"
       style="display:inline;fill:#361d00;fill-opacity:1;fill-rule:evenodd;stroke:#000000;stroke-width:1;stroke-linecap:butt;stroke-linejoin:miter;stroke-miterlimit:4;stroke-dasharray:none;stroke-opacity:1" />
    <path
       sodipodi:nodetypes="ccc"
       inkscape:connector-curvature="0"
       id="path4917"
       d="m 277.62201,548.00833 c 1.27099,-3.48977 6.84071,-5.90111 11.49783,-0.35197 -2.11055,2.52453 -8.85075,3.51594 -11.49783,0.35197 z"
       style="display:inline;fill:#ffffff;fill-opacity:1;fill-rule:evenodd;stroke:#000000;stroke-width:1;stroke-linecap:butt;stroke-linejoin:miter;stroke-miterlimit:4;stroke-dasharray:none;stroke-opacity:1" />
    <path
       sodipodi:nodetypes="zzz"
       inkscape:connector-curvature="0"
       id="path4919"
       d="m 280.57443,546.73892 c 0.064,3.03749 4.73337,2.53191 4.5034,-0.11251 -0.22994,-2.64442 -4.56739,-2.92497 -4.5034,0.11251 z"
       style="display:inline;fill:#000000;fill-opacity:1;fill-rule:evenodd;stroke:#000000;stroke-width:1;stroke-linecap:butt;stroke-linejoin:miter;stroke-miterlimit:4;stroke-dasharray:none;stroke-opacity:1" />
    <path
       sodipodi:nodetypes="cc"
       inkscape:connector-curvature="0"
       id="path4921"
       d="m 263.70804,561.06992 c -4.00556,2.78275 -2.9007,4.98899 -0.14813,6.06757"
       style="display:inline;fill:none;fill-rule:evenodd;stroke:#000000;stroke-width:1;stroke-linecap:butt;stroke-linejoin:miter;stroke-miterlimit:4;stroke-dasharray:none;stroke-opacity:1" />
    <path
       inkscape:connector-curvature="0"
       id="path4923"
       d="m 275.04504,560.77557 c 2.30832,1.79406 2.66663,3.99651 0,5.89965 -0.26744,0.0336 -0.27162,0.3028 -0.71509,0.35755"
       style="display:inline;fill:none;fill-rule:evenodd;stroke:#000000;stroke-width:1;stroke-linecap:butt;stroke-linejoin:miter;stroke-miterlimit:4;stroke-dasharray:none;stroke-opacity:1" />
    <path
       sodipodi:nodetypes="cc"
       inkscape:connector-curvature="0"
       id="path4925"
       d="m 263.81275,565.55019 c 0.0593,-2.72891 3.7373,0.28102 2.62933,1.25144"
       style="display:inline;fill:none;fill-rule:evenodd;stroke:#000000;stroke-width:1;stroke-linecap:butt;stroke-linejoin:miter;stroke-miterlimit:4;stroke-dasharray:none;stroke-opacity:1" />
    <path
       sodipodi:nodetypes="cc"
       inkscape:connector-curvature="0"
       id="path4927"
       d="m 271.69168,565.68744 c -0.63985,-1.15194 2.39051,-2.96786 2.64913,-1.02029"
       style="display:inline;fill:none;fill-rule:evenodd;stroke:#000000;stroke-width:1;stroke-linecap:butt;stroke-linejoin:miter;stroke-miterlimit:4;stroke-dasharray:none;stroke-opacity:1" />
    <path
       sodipodi:nodetypes="ccczc"
       inkscape:connector-curvature="0"
       id="path4929"
       d="m 261.43631,578.77971 c 2.4835,-3.18119 5.41,-5.42403 9.08695,-4.49113 4.6352,-1.94007 10.12379,0.75895 12.79978,2.25192 -3.71386,1.1906 -7.48605,5.401 -11.06249,5.63411 -3.57648,0.23308 -7.6485,-2.08061 -10.82424,-3.3949 z"
       style="display:inline;fill:#ffdbd6;fill-opacity:1;fill-rule:evenodd;stroke:#000000;stroke-width:1;stroke-linecap:butt;stroke-linejoin:miter;stroke-miterlimit:4;stroke-dasharray:none;stroke-opacity:1" />
    <path
       sodipodi:nodetypes="czc"
       inkscape:connector-curvature="0"
       id="path4931"
       d="m 261.72878,578.60092 c 2.844,-1.12557 6.91492,-0.59498 9.99327,-0.81796 3.07831,-0.22299 8.97089,-2.08097 11.02313,-1.30567"
       style="display:inline;fill:none;fill-rule:evenodd;stroke:#000000;stroke-width:1;stroke-linecap:butt;stroke-linejoin:miter;stroke-miterlimit:4;stroke-dasharray:none;stroke-opacity:1" />
    <path
       sodipodi:nodetypes="cc"
       inkscape:connector-curvature="0"
       id="path4933"
       d="m 302.07294,561.79586 c -0.79887,-2.20839 4.17239,-2.62237 1.01474,-5.87083"
       style="display:inline;fill:#fff5f0;fill-opacity:1;fill-rule:evenodd;stroke:#000000;stroke-width:1;stroke-linecap:butt;stroke-linejoin:miter;stroke-miterlimit:4;stroke-dasharray:none;stroke-opacity:1" />
    <path
       sodipodi:nodetypes="czzc"
       inkscape:connector-curvature="0"
       id="path4935"
       d="m 255.55834,587.37637 c 0.77607,3.64517 3.96734,6.38593 8.49191,8.79708 4.52458,2.4112 14.62684,2.0179 19.84431,0.26817 5.21746,-1.74975 8.81465,-5.4664 10.816,-7.86621"
       style="display:inline;fill:none;fill-rule:evenodd;stroke:#000000;stroke-width:1;stroke-linecap:butt;stroke-linejoin:miter;stroke-miterlimit:4;stroke-dasharray:none;stroke-opacity:1" />
    <path
       style="display:inline;fill:#ffffff;fill-opacity:1;fill-rule:evenodd;stroke:#000000;stroke-width:1;stroke-linecap:butt;stroke-linejoin:miter;stroke-miterlimit:4;stroke-dasharray:none;stroke-opacity:1"
       d="m 261.93242,549.86327 c -1.65291,-2.95966 -7.02246,-4.32228 -10.41163,1.35535 2.269,1.9678 8.48668,1.88067 10.41163,-1.35535 z"
       id="path4937"
       inkscape:connector-curvature="0"
       sodipodi:nodetypes="ccc" />
    <path
       style="display:inline;fill:#000000;fill-opacity:1;fill-rule:evenodd;stroke:#000000;stroke-width:1;stroke-linecap:butt;stroke-linejoin:miter;stroke-miterlimit:4;stroke-dasharray:none;stroke-opacity:1"
       d="m 254.97547,549.64645 c 0.064,3.03749 4.73337,2.53191 4.5034,-0.1125 -0.22993,-2.64442 -4.56739,-2.92498 -4.5034,0.1125 z"
       id="path4939"
       inkscape:connector-curvature="0"
       sodipodi:nodetypes="zzz" />
    <path
       sodipodi:nodetypes="cc"
       inkscape:connector-curvature="0"
       id="path4941"
       d="m 303.60603,549.32112 c 0.77156,-3.26725 6.11728,-4.23273 1.90336,5.50802"
       style="display:inline;fill:none;fill-rule:evenodd;stroke:#000000;stroke-width:1;stroke-linecap:butt;stroke-linejoin:miter;stroke-miterlimit:4;stroke-dasharray:none;stroke-opacity:1" />
    <g
       transform="matrix(0.35353236,0,0,0.35353236,-53.572888,285.31152)"
       id="g4943"
       style="display:inline;stroke-width:2.8285954;stroke-miterlimit:4;stroke-dasharray:none">
      <path
         sodipodi:nodetypes="ccccccccccccczcc"
         inkscape:connector-curvature="0"
         id="path4945"
         d="m 689.00656,1201.8249 c 13.9146,-11.0962 36.4315,-27.7914 50.1751,-37.2921 11.6814,-10.4002 23.489,-18.1835 33.9324,-29.8559 5.3914,-8.6169 11.9772,-15.3467 17.3908,-25.9915 10.9435,-8.5898 21.71614,-24.0077 26.18804,-41.1208 6.9263,-16.7433 13.6234,-20.6787 17.2777,-38.5409 4.9976,-17.1017 -10.792,-23.6936 -21.7199,-19.3993 9.2996,-6.578 5.7943,-17.71231 -3.92644,-21.71714 -12.6212,-1.47378 -28.7802,0.37427 -41.509,0.0505 -23.8977,-0.50812 -25.3291,1.92033 -32.256,14.30794 -5.9757,1.2756 -9.0402,3.8568 -10.2756,14.0019 -0.1473,10.0553 1.5717,30.082 0.5746,42.2716 -3.2555,14.5705 -3.982,33.8081 -8.0389,48.2162 -6.0239,6.4319 -17.5085,13.7375 -26.8298,21.2932 -9.3214,7.5556 -23.3632,19.3733 -33.203,28.7677 -0.7987,19.0761 17.0461,42.2977 32.22,45.0085 z"
         style="fill:#fff5f0;fill-opacity:1;fill-rule:evenodd;stroke:#000000;stroke-width:2.8285954;stroke-linecap:butt;stroke-linejoin:miter;stroke-miterlimit:4;stroke-dasharray:none;stroke-opacity:1" />
      <path
         sodipodi:nodetypes="czzczzzzzccc"
         inkscape:connector-curvature="0"
         id="path4947"
         d="m 692.16706,1124.4545 c -6.158,6.6089 -5.8642,14.854 -5.4178,25.4183 0.4465,10.5642 4.2194,15.1412 14.0383,23.7279 9.8189,8.5867 19.9016,5.221 25.6399,1.1698 15.4512,0.1682 -27.3801,46.2144 -46.6907,66.9429 -19.3106,20.7285 -39.0646,39.6087 -67.1702,57.9163 -28.1056,18.3077 -49.8142,28.2425 -63.8553,30.3171 -14.0411,2.0745 -28.0811,-7.5149 -34.689,-26.9213 -6.608,-19.4065 -8.5828,-41.9952 3.4279,-67.0531 12.0106,-25.058 26.4636,-50.6649 53.3109,-59.2342 25.7347,-8.0278 42.4063,-12.1469 67.3717,-22.8249 28.7457,-15.7312 52.8028,-38.4955 54.0343,-29.4588 z"
         style="fill:#ffca4f;fill-opacity:1;fill-rule:evenodd;stroke:#000000;stroke-width:2.8285954;stroke-linecap:butt;stroke-linejoin:miter;stroke-miterlimit:4;stroke-dasharray:none;stroke-opacity:1" />
      <path
         sodipodi:nodetypes="ccccccc"
         inkscape:connector-curvature="0"
         id="path4949"
         d="m 782.42876,1062.6124 c -10.0177,-4.8618 -18.6948,4.678 -14.1907,10.915 6.5389,4.5974 16.5325,4.0034 23.5904,2.0802 9.68,-2.9633 7.5397,-14.9652 9.6254,-22.7255 2.3134,-8.0531 -1.3443,-17.1925 -10.6913,-17.09 -13.9076,-2.5114 -22.3947,-1.1798 -36.4183,-1.169 -8.3077,0.531 -15.0154,1.3459 -18.8418,7.4219"
         style="fill:none;fill-rule:evenodd;stroke:#000000;stroke-width:2.8285954;stroke-linecap:butt;stroke-linejoin:miter;stroke-miterlimit:4;stroke-dasharray:none;stroke-opacity:1" />
      <path
         sodipodi:nodetypes="czccc"
         inkscape:connector-curvature="0"
         id="path4951"
         d="m 802.02796,1049.1069 c 5.2945,-2.9842 4.3327,-16.8457 5.5969,-23.5397 1.2643,-6.6939 -3.3964,-12.0071 -9.8158,-10.778 -14.9255,-0.4454 -29.6793,2.7578 -44.588,2.6997 -5.8517,0.6862 -12.595,0.6718 -16.9326,5.3222"
         style="fill:none;fill-rule:evenodd;stroke:#000000;stroke-width:2.8285954;stroke-linecap:butt;stroke-linejoin:miter;stroke-miterlimit:4;stroke-dasharray:none;stroke-opacity:1" />
      <path
         sodipodi:nodetypes="ccc"
         inkscape:connector-curvature="0"
         id="path4953"
         d="m 749.43626,1003.0893 c 18.3889,-1.3913 37.6505,-0.7338 54.6144,-1.5171 7.62824,2.3354 5.7471,12.5408 3.8694,18.5497"
         style="fill:none;fill-rule:evenodd;stroke:#000000;stroke-width:2.8285954;stroke-linecap:butt;stroke-linejoin:miter;stroke-miterlimit:4;stroke-dasharray:none;stroke-opacity:1" />
      <path
         sodipodi:nodetypes="cc"
         inkscape:connector-curvature="0"
         id="path4955"
         d="m 812.6782,1009.395 c -5.20594,1.9162 -8.27184,24.3986 5.279,31.6209"
         style="fill:none;fill-rule:evenodd;stroke:#000000;stroke-width:2.8285954;stroke-linecap:butt;stroke-linejoin:miter;stroke-miterlimit:4;stroke-dasharray:none;stroke-opacity:1" />
      <path
         sodipodi:nodetypes="ccc"
         inkscape:connector-curvature="0"
         id="path4957"
         d="m 815.4286,1011.1803 c 5.9017,2.0863 10.3671,12.2976 10.3671,12.2976 8.8911,-10.2526 -5.3248,-15.8905 -10.3671,-12.2976 z"
         style="fill:#fff5f0;fill-opacity:1;fill-rule:evenodd;stroke:#000000;stroke-width:2.8285954;stroke-linecap:butt;stroke-linejoin:miter;stroke-miterlimit:4;stroke-dasharray:none;stroke-opacity:1" />
      <path
         sodipodi:nodetypes="cc"
         inkscape:connector-curvature="0"
         id="path4959"
         d="m 771.91616,1075.443 c 3.7915,10.8298 3.7446,28.1722 -0.8325,31.2923"
         style="fill:none;fill-rule:evenodd;stroke:#000000;stroke-width:2.8285954;stroke-linecap:butt;stroke-linejoin:miter;stroke-miterlimit:4;stroke-dasharray:none;stroke-opacity:1" />
      <path
         sodipodi:nodetypes="cc"
         inkscape:connector-curvature="0"
         id="path4961"
         d="m 773.84166,1082.0074 c 2.2526,14.134 7.8487,21.5006 10.2111,23.4921"
         style="fill:none;fill-rule:evenodd;stroke:#000000;stroke-width:2.8285954;stroke-linecap:butt;stroke-linejoin:miter;stroke-miterlimit:4;stroke-dasharray:none;stroke-opacity:1" />
    </g>
    <g
       transform="matrix(0.23974222,0.97083658,-0.97083658,0.23974222,758.27087,-240.66263)"
       id="g5193"
       style="display:inline;opacity:1">
      <path
         sodipodi:nodetypes="czcczcc"
         inkscape:connector-curvature="0"
         id="path5195"
         d="m 674.48196,703.83565 c 0,0 15.1981,-3.786 22.86825,-4.14051 7.67016,-0.35451 23.15269,2.01345 23.15269,2.01345 l 0.20405,4.4148 c 0,0 -15.48253,-2.36796 -23.15269,-2.01345 -7.67015,0.35451 -22.86825,4.14051 -22.86825,4.14051 z"
         style="opacity:1;fill:#00ffef;fill-opacity:1;stroke:none;stroke-width:0.2;stroke-miterlimit:4;stroke-dasharray:none;stroke-opacity:1" />
      <path
         inkscape:transform-center-y="-3.6483547"
         transform="matrix(0.82510434,0.18071214,-0.07919793,0.36160579,464.93068,353.31607)"
         inkscape:transform-center-x="-5.9175721"
         d="m 383.02504,794.34935 0,-16.72624 0,-16.72625 14.48536,8.36313 14.48535,8.36312 -14.48535,8.36312 z"
         inkscape:randomized="0"
         inkscape:rounded="0"
         inkscape:flatsided="false"
         sodipodi:arg2="3.1415927"
         sodipodi:arg1="2.0943951"
         sodipodi:r2="9.6569014"
         sodipodi:r1="19.313803"
         sodipodi:cy="777.62311"
         sodipodi:cx="392.68195"
         sodipodi:sides="3"
         id="path5197"
         style="opacity:1;fill:#00ffef;fill-opacity:1;stroke:none;stroke-width:0.2;stroke-miterlimit:4;stroke-dasharray:none;stroke-opacity:1"
         sodipodi:type="star" />
      <path
         sodipodi:type="star"
         style="opacity:1;fill:#00ffef;fill-opacity:1;stroke:none;stroke-width:0.2;stroke-miterlimit:4;stroke-dasharray:none;stroke-opacity:1"
         id="path5199"
         sodipodi:sides="3"
         sodipodi:cx="392.68195"
         sodipodi:cy="777.62311"
         sodipodi:r1="19.313803"
         sodipodi:r2="9.6569014"
         sodipodi:arg1="2.0943951"
         sodipodi:arg2="3.1415927"
         inkscape:flatsided="false"
         inkscape:rounded="0"
         inkscape:randomized="0"
         d="m 383.02504,794.34935 0,-16.72624 0,-16.72625 14.48536,8.36313 14.48535,8.36312 -14.48535,8.36312 z"
         inkscape:transform-center-x="4.9820395"
         transform="matrix(-0.82765892,0.16862608,-0.07390116,-0.36272534,1051.0741,923.2349)"
         inkscape:transform-center-y="1.1625171" />
    </g>
    <text
       sodipodi:linespacing="125%"
       id="text5211"
       y="726.32471"
       x="209.53667"
       style="font-style:normal;font-weight:normal;font-size:40px;line-height:125%;font-family:sans-serif;letter-spacing:0px;word-spacing:0px;display:inline;opacity:1;fill:#000000;fill-opacity:1;stroke:none;stroke-width:1px;stroke-linecap:butt;stroke-linejoin:miter;stroke-opacity:1"
       xml:space="preserve"><tspan
         style="fill:#00ffef;fill-opacity:1"
         y="726.32471"
         x="209.53667"
         id="tspan5213"
         sodipodi:role="line">2</tspan></text>
    <text
       xml:space="preserve"
       style="font-style:normal;font-weight:normal;font-size:40px;line-height:125%;font-family:sans-serif;letter-spacing:0px;word-spacing:0px;display:inline;fill:#00ffef;fill-opacity:1;stroke:none;stroke-width:1px;stroke-linecap:butt;stroke-linejoin:miter;stroke-opacity:1"
       x="146.46088"
       y="576.22943"
       id="text5215"
       sodipodi:linespacing="125%"><tspan
         sodipodi:role="line"
         id="tspan5217"
         x="146.46088"
         y="576.22943">1</tspan></text>
    <text
       xml:space="preserve"
       style="font-style:normal;font-weight:normal;font-size:40px;line-height:125%;font-family:sans-serif;letter-spacing:0px;word-spacing:0px;display:inline;fill:#00ffef;fill-opacity:1;stroke:none;stroke-width:1px;stroke-linecap:butt;stroke-linejoin:miter;stroke-opacity:1"
       x="206.1655"
       y="535.24146"
       id="text5219"
       sodipodi:linespacing="125%"><tspan
         sodipodi:role="line"
         id="tspan5221"
         x="206.1655"
         y="535.24146">3</tspan></text>
  </g>
</svg>
