<?xml version="1.0" encoding="UTF-8" standalone="no"?>
<!-- Created with Inkscape (http://www.inkscape.org/) -->

<svg
   xmlns:dc="http://purl.org/dc/elements/1.1/"
   xmlns:cc="http://creativecommons.org/ns#"
   xmlns:rdf="http://www.w3.org/1999/02/22-rdf-syntax-ns#"
   xmlns:svg="http://www.w3.org/2000/svg"
   xmlns="http://www.w3.org/2000/svg"
   xmlns:sodipodi="http://sodipodi.sourceforge.net/DTD/sodipodi-0.dtd"
   xmlns:inkscape="http://www.inkscape.org/namespaces/inkscape"
   width="12.034771mm"
   height="12.912833mm"
   viewBox="0 0 42.642889 45.754133"
   id="svg3440"
   version="1.1"
   inkscape:version="0.91 r13725"
   sodipodi:docname="config-D-biere.svg">
  <defs
     id="defs3442" />
  <sodipodi:namedview
     id="base"
     pagecolor="#ffffff"
     bordercolor="#666666"
     borderopacity="1.0"
     inkscape:pageopacity="0.0"
     inkscape:pageshadow="2"
     inkscape:zoom="0.35"
     inkscape:cx="27.750017"
     inkscape:cy="14.30563"
     inkscape:document-units="px"
     inkscape:current-layer="layer1"
     showgrid="false"
     inkscape:window-width="1366"
     inkscape:window-height="692"
     inkscape:window-x="0"
     inkscape:window-y="24"
     inkscape:window-maximized="1"
     fit-margin-top="0"
     fit-margin-left="0"
     fit-margin-right="0"
     fit-margin-bottom="0" />
  <metadata
          id="metadata5321">
    <rdf:RDF>
      <cc:Work
              rdf:about="">
        <dc:format>image/svg+xml</dc:format>
        <dc:type
                rdf:resource="http://purl.org/dc/dcmitype/StillImage" />
        <dc:title></dc:title>
        <cc:license
                rdf:resource="http://creativecommons.org/publicdomain/zero/1.0/" />
      </cc:Work>
      <cc:License
              rdf:about="http://creativecommons.org/publicdomain/zero/1.0/">
        <cc:permits
                rdf:resource="http://creativecommons.org/ns#Reproduction" />
        <cc:permits
                rdf:resource="http://creativecommons.org/ns#Distribution" />
        <cc:permits
                rdf:resource="http://creativecommons.org/ns#DerivativeWorks" />
      </cc:License>
    </rdf:RDF>
  </metadata>
  <g
     inkscape:label="Layer 1"
     inkscape:groupmode="layer"
     id="layer1"
     transform="translate(-347.24998,-500.9137)">
    <g
       id="g6216"
       transform="translate(-94.61759,-483.02842)">
      <path
         sodipodi:nodetypes="ccczcccccccczzcc"
         inkscape:connector-curvature="0"
         id="path6047"
         d="m 449.64286,1029.6836 -0.17857,-7.0531 c -1.98872,-2.2503 -3.61587,-4.7613 -5.0442,-7.3929 -0.93942,-2.3781 -1.21949,-5.1389 -1.30733,-7.4604 -0.0878,-2.3215 -0.37942,-5.1063 0.0676,-7.1959 -0.56012,-2.45569 -0.58926,-6.61938 -0.79846,-8.84027 1.52842,-2.31293 4.18834,-2.60016 7.08818,-2.37515 2.96931,-3.24582 3.89531,-4.62779 8.51739,-3.11298 5.22902,-3.91244 9.34389,-0.4171 11.08325,0.43674 2.40877,-1.64342 7.19777,0.0799 8.10329,2.37447 1.51849,-0.93315 2.34837,-2.86857 4.38782,-3.07007 3.49653,-0.0944 2.56509,1.03663 1.36537,5.53167 -0.53968,3.74939 -1.78844,8.14275 -2.37415,11.58919 -0.58571,3.4465 -1.09838,6.4008 -2.79196,10.7547 -1.69358,4.3539 -5.3987,7.7242 -8.18327,9.5707 l 0.065,6.1545"
         style="fill:none;fill-rule:evenodd;stroke:#000000;stroke-width:1px;stroke-linecap:butt;stroke-linejoin:miter;stroke-opacity:1" />
      <path
         inkscape:connector-curvature="0"
         id="path6049"
         d="m 473.75,1011.4693 c -0.40675,-2.1788 -0.50283,-4.4067 -0.71428,-6.6071"
         style="fill:none;fill-rule:evenodd;stroke:#000000;stroke-width:1px;stroke-linecap:butt;stroke-linejoin:miter;stroke-opacity:1" />
      <path
         sodipodi:nodetypes="czcc"
         inkscape:connector-curvature="0"
         id="path6051"
         d="m 477.37373,988.75826 c -0.79018,3.01849 -1.12754,7.45932 -2.45771,12.57784 -1.33018,5.1186 -6.27358,5.7877 -7.24617,2.048 0.56057,-4.15602 1.32279,-14.20538 1.38004,-16.67576"
         style="fill:none;fill-rule:evenodd;stroke:#000000;stroke-width:1px;stroke-linecap:butt;stroke-linejoin:miter;stroke-opacity:1" />
      <path
         sodipodi:nodetypes="czccc"
         inkscape:connector-curvature="0"
         id="path6053"
         d="m 458.01405,986.21493 c 1.0305,3.53883 1.3118,8.10032 1.32245,11.04191 0.0106,2.94156 0.48184,5.30996 -0.75284,7.93336 -0.64752,2.9041 -4.63694,1.8963 -5.99547,0.082 -1.54509,-5.1303 -0.78338,-10.50637 -2.85156,-15.9675"
         style="fill:none;fill-rule:evenodd;stroke:#000000;stroke-width:1px;stroke-linecap:butt;stroke-linejoin:miter;stroke-opacity:1" />
      <path
         sodipodi:nodetypes="ccc"
         inkscape:connector-curvature="0"
         id="path6057"
         d="m 443.12948,1000.3979 c 0.11354,2.6222 0.79593,5.7683 2.83684,7.6343 2.54941,1.7477 5.49107,-0.541 6.58709,-2.4698"
         style="fill:none;fill-rule:evenodd;stroke:#000000;stroke-width:1px;stroke-linecap:butt;stroke-linejoin:miter;stroke-opacity:1" />
      <path
         sodipodi:nodetypes="cc"
         inkscape:connector-curvature="0"
         id="path6059"
         d="m 458.39286,1015.5765 c -0.12414,-3.8718 2.04329,-6.6065 4.8304,-9.0224"
         style="fill:none;fill-rule:evenodd;stroke:#000000;stroke-width:1px;stroke-linecap:butt;stroke-linejoin:miter;stroke-opacity:1" />
      <path
         sodipodi:nodetypes="cc"
         inkscape:connector-curvature="0"
         id="path6061"
         d="m 459.21422,1003.4678 c 1.03137,4.3259 7.66858,3.551 8.49501,-0.2867"
         style="fill:none;fill-rule:evenodd;stroke:#000000;stroke-width:1px;stroke-linecap:butt;stroke-linejoin:miter;stroke-opacity:1" />
      <path
         sodipodi:nodetypes="cc"
         inkscape:connector-curvature="0"
         id="path6063"
         d="m 445.47072,1007.3297 c 0.0631,-3.2387 5.67012,-5.1918 6.41376,-0.9318"
         style="fill:none;fill-rule:evenodd;stroke:#000000;stroke-width:1px;stroke-linecap:butt;stroke-linejoin:miter;stroke-opacity:1" />
      <path
         sodipodi:nodetypes="cc"
         inkscape:connector-curvature="0"
         id="path6065"
         d="m 452.78318,1005.4718 c -0.72707,-3.5845 6.75951,-4.2192 5.92535,-0.3046"
         style="fill:none;fill-rule:evenodd;stroke:#000000;stroke-width:1px;stroke-linecap:butt;stroke-linejoin:miter;stroke-opacity:1" />
      <path
         sodipodi:nodetypes="cc"
         inkscape:connector-curvature="0"
         id="path6067"
         d="m 459.9152,1004.7359 c 1.5518,-4.0455 6.35769,-3.5907 6.51337,0.3049"
         style="fill:none;fill-rule:evenodd;stroke:#000000;stroke-width:1px;stroke-linecap:butt;stroke-linejoin:miter;stroke-opacity:1" />
      <path
         sodipodi:nodetypes="cc"
         inkscape:connector-curvature="0"
         id="path6069"
         d="m 467.77049,1003.5689 c 1.69296,-4.00439 5.72684,-2.2963 5.4438,0.4004"
         style="fill:none;fill-rule:evenodd;stroke:#000000;stroke-width:1px;stroke-linecap:butt;stroke-linejoin:miter;stroke-opacity:1" />
    </g>
  </g>
</svg>
