<?xml version="1.0" encoding="UTF-8" standalone="no"?>
<!-- Created with Inkscape (http://www.inkscape.org/) -->

<svg
   xmlns:dc="http://purl.org/dc/elements/1.1/"
   xmlns:cc="http://creativecommons.org/ns#"
   xmlns:rdf="http://www.w3.org/1999/02/22-rdf-syntax-ns#"
   xmlns:svg="http://www.w3.org/2000/svg"
   xmlns="http://www.w3.org/2000/svg"
   xmlns:sodipodi="http://sodipodi.sourceforge.net/DTD/sodipodi-0.dtd"
   xmlns:inkscape="http://www.inkscape.org/namespaces/inkscape"
   width="10.266816mm"
   height="19.960169mm"
   viewBox="0 0 36.378482 70.725007"
   id="svg3402"
   version="1.1"
   inkscape:version="0.91 r13725"
   sodipodi:docname="config-4.svg">
  <defs
     id="defs3404" />
  <sodipodi:namedview
     id="base"
     pagecolor="#ffffff"
     bordercolor="#666666"
     borderopacity="1.0"
     inkscape:pageopacity="0.0"
     inkscape:pageshadow="2"
     inkscape:zoom="0.35"
     inkscape:cx="125.3321"
     inkscape:cy="35.362506"
     inkscape:document-units="px"
     inkscape:current-layer="layer1"
     showgrid="false"
     fit-margin-top="0"
     fit-margin-left="0"
     fit-margin-right="0"
     fit-margin-bottom="0"
     inkscape:window-width="1366"
     inkscape:window-height="692"
     inkscape:window-x="0"
     inkscape:window-y="24"
     inkscape:window-maximized="1" />
  <metadata
          id="metadata5321">
    <rdf:RDF>
      <cc:Work
              rdf:about="">
        <dc:format>image/svg+xml</dc:format>
        <dc:type
                rdf:resource="http://purl.org/dc/dcmitype/StillImage" />
        <dc:title></dc:title>
        <cc:license
                rdf:resource="http://creativecommons.org/publicdomain/zero/1.0/" />
      </cc:Work>
      <cc:License
              rdf:about="http://creativecommons.org/publicdomain/zero/1.0/">
        <cc:permits
                rdf:resource="http://creativecommons.org/ns#Reproduction" />
        <cc:permits
                rdf:resource="http://creativecommons.org/ns#Distribution" />
        <cc:permits
                rdf:resource="http://creativecommons.org/ns#DerivativeWorks" />
      </cc:License>
    </rdf:RDF>
  </metadata>
  <g
     inkscape:label="Layer 1"
     inkscape:groupmode="layer"
     id="layer1"
     transform="translate(71.760674,-496.9997)">
    <g
       transform="translate(-381.7849,-423.81671)"
       style="opacity:0.95999995"
       id="g4358">
      <path
         sodipodi:nodetypes="cczccc"
         inkscape:connector-curvature="0"
         id="path4332"
         d="m 316.99399,991.53137 c -0.0736,-3.66074 0.60529,-8.06344 -2.39911,-10.66974 -2.9818,-3.21642 -3.99838,-5.96642 -4.06315,-11.45809 -0.0648,-5.49167 0.31418,-9.31006 0.27508,-14.67961 0.6485,-4.96026 5.85752,-3.31515 6.31345,-2.62983 -0.19862,-4.47214 7.9086,-4.32609 8.46004,-1.85272"
         style="fill:none;fill-rule:evenodd;stroke:#000000;stroke-width:1px;stroke-linecap:butt;stroke-linejoin:miter;stroke-opacity:1" />
      <path
         sodipodi:nodetypes="czzzczcccc"
         inkscape:connector-curvature="0"
         id="path4334"
         d="m 327.72687,960.65858 c -1.10909,-3.97623 -2.18241,-9.53627 -2.7048,-14.53194 -0.5224,-4.99568 -2.05567,-13.45331 -2.47224,-19.9011 -0.41657,-6.44778 6.34341,-6.57041 7.51182,-0.21184 1.16841,6.35857 1.69368,15.34861 4.68054,27.06564 2.07011,-9.37983 4.10383,-19.68579 5.25953,-24.528 1.1557,-4.84222 6.91115,-6.11006 5.74421,2.97242 -1.50264,10.37173 -2.55665,15.5962 -3.68753,23.26981 0.13136,6.28995 -0.20415,19.32192 -0.16795,25.57865 -0.55821,6.80293 -5.43069,4.56767 -5.13534,10.90157"
         style="fill:none;fill-rule:evenodd;stroke:#000000;stroke-width:1px;stroke-linecap:butt;stroke-linejoin:miter;stroke-opacity:1" />
      <path
         sodipodi:nodetypes="cccccc"
         inkscape:connector-curvature="0"
         id="path4336"
         d="m 324.44387,979.72521 c -0.0732,-4.19799 1.8359,-7.75397 5.46242,-7.00115 -0.70792,-1.37272 -0.52938,-2.77011 0.15821,-3.86699 -7.34096,-0.62261 -8.63414,-4.05291 -7.82198,-8.05786 3.37772,-0.27555 5.85687,0.081 7.88362,-0.62072 6.7426,0.58188 10.18926,8.88754 11.96046,10.52375"
         style="fill:none;fill-rule:evenodd;stroke:#000000;stroke-width:1px;stroke-linecap:butt;stroke-linejoin:miter;stroke-opacity:1" />
      <path
         sodipodi:nodetypes="cc"
         inkscape:connector-curvature="0"
         id="path4338"
         d="m 327.85314,960.72172 c -0.8036,2.07389 -3.93733,2.85086 -5.68211,2.08343"
         style="fill:none;fill-rule:evenodd;stroke:#000000;stroke-width:1px;stroke-linecap:butt;stroke-linejoin:miter;stroke-opacity:1" />
      <path
         sodipodi:nodetypes="ccc"
         inkscape:connector-curvature="0"
         id="path4340"
         d="m 317.05713,951.75661 c 0.43465,4.66397 2.55374,10.85739 3.0809,14.25321 -3.11423,7.75764 -7.13177,1.55495 -9.45749,-3.70975"
         style="fill:none;fill-rule:evenodd;stroke:#000000;stroke-width:1px;stroke-linecap:butt;stroke-linejoin:miter;stroke-opacity:1" />
      <path
         sodipodi:nodetypes="cc"
         inkscape:connector-curvature="0"
         id="path4342"
         d="m 314.15294,967.91905 c -0.2395,-3.01753 4.75816,-3.73007 5.74524,-1.89403"
         style="fill:none;fill-rule:evenodd;stroke:#000000;stroke-width:1px;stroke-linecap:butt;stroke-linejoin:miter;stroke-opacity:1" />
      <path
         sodipodi:nodetypes="cc"
         inkscape:connector-curvature="0"
         id="path4344"
         d="m 320.08758,965.89875 c 0.31407,2.32425 3.49449,3.9344 4.51413,1.54679"
         style="fill:none;fill-rule:evenodd;stroke:#000000;stroke-width:1px;stroke-linecap:butt;stroke-linejoin:miter;stroke-opacity:1" />
      <path
         sodipodi:nodetypes="cc"
         inkscape:connector-curvature="0"
         id="path4346"
         d="m 320.34013,966.78264 c 0.22627,-0.75423 1.66457,-1.79657 2.17812,-1.38897"
         style="fill:none;fill-rule:evenodd;stroke:#000000;stroke-width:1px;stroke-linecap:butt;stroke-linejoin:miter;stroke-opacity:1" />
    </g>
  </g>
</svg>
