<?xml version="1.0" encoding="UTF-8" standalone="no"?>
<!-- Created with Inkscape (http://www.inkscape.org/) -->

<svg
   xmlns:dc="http://purl.org/dc/elements/1.1/"
   xmlns:cc="http://creativecommons.org/ns#"
   xmlns:rdf="http://www.w3.org/1999/02/22-rdf-syntax-ns#"
   xmlns:svg="http://www.w3.org/2000/svg"
   xmlns="http://www.w3.org/2000/svg"
   xmlns:sodipodi="http://sodipodi.sourceforge.net/DTD/sodipodi-0.dtd"
   xmlns:inkscape="http://www.inkscape.org/namespaces/inkscape"
   width="18.78631mm"
   height="19.260519mm"
   viewBox="0 0 66.565666 68.245933"
   id="svg3399"
   version="1.1"
   inkscape:version="0.91 r13725"
   sodipodi:docname="config-6.svg">
  <defs
     id="defs3401" />
  <sodipodi:namedview
     id="base"
     pagecolor="#ffffff"
     bordercolor="#666666"
     borderopacity="1.0"
     inkscape:pageopacity="0.0"
     inkscape:pageshadow="2"
     inkscape:zoom="0.35"
     inkscape:cx="140.42569"
     inkscape:cy="34.122964"
     inkscape:document-units="px"
     inkscape:current-layer="layer1"
     showgrid="false"
     fit-margin-top="0"
     fit-margin-left="0"
     fit-margin-right="0"
     fit-margin-bottom="0"
     inkscape:window-width="1366"
     inkscape:window-height="692"
     inkscape:window-x="0"
     inkscape:window-y="24"
     inkscape:window-maximized="1" />
  <metadata
          id="metadata5321">
    <rdf:RDF>
      <cc:Work
              rdf:about="">
        <dc:format>image/svg+xml</dc:format>
        <dc:type
                rdf:resource="http://purl.org/dc/dcmitype/StillImage" />
        <dc:title></dc:title>
        <cc:license
                rdf:resource="http://creativecommons.org/publicdomain/zero/1.0/" />
      </cc:Work>
      <cc:License
              rdf:about="http://creativecommons.org/publicdomain/zero/1.0/">
        <cc:permits
                rdf:resource="http://creativecommons.org/ns#Reproduction" />
        <cc:permits
                rdf:resource="http://creativecommons.org/ns#Distribution" />
        <cc:permits
                rdf:resource="http://creativecommons.org/ns#DerivativeWorks" />
      </cc:License>
    </rdf:RDF>
  </metadata>
  <g
     inkscape:label="Layer 1"
     inkscape:groupmode="layer"
     id="layer1"
     transform="translate(86.854259,-498.23923)">
    <g
       id="g4409"
       transform="translate(-739.65579,-157.93212)">
      <path
         sodipodi:nodetypes="cccccccccccc"
         inkscape:connector-curvature="0"
         id="path4319"
         d="m 670.56725,723.54658 c 0.0399,-2.65832 -0.13518,-4.37764 -0.19233,-6.42064 -3.89644,-3.918 -7.13924,-7.26682 -6.8955,-25.05913 -2.82134,-6.75431 -13.02682,-17.65428 -9.4187,-21.71439 3.69431,-4.47699 12.96541,17.44246 15.73315,17.23931 -1.23565,-7.11541 -9.54681,-25.90453 -4.0932,-28.058 6.51803,-1.62818 8.84077,23.09151 13.4714,27.55006 1.82249,-4.43916 -5.96855,-29.028 1.9309,-30.41222 7.77146,-0.086 3.58244,23.86848 7.15038,29.61974 3.53613,-5.64455 3.87628,-25.26525 9.65682,-23.98159 6.18211,1.36054 -1.33319,16.82264 -0.64649,22.219 0.18435,2.18095 -0.94511,16.85976 0.26787,19.28572"
         style="fill:none;fill-rule:evenodd;stroke:#000000;stroke-width:1px;stroke-linecap:butt;stroke-linejoin:miter;stroke-opacity:1" />
      <path
         sodipodi:nodetypes="cccc"
         inkscape:connector-curvature="0"
         id="path4321"
         d="m 695.03154,706.13586 c 6.32061,-4.46489 21.59176,-12.23381 23.75,-3.39285 -17.59273,7.64164 -15.75571,10.37047 -28.09947,16.55854 -0.69129,1.56885 0.0586,3.34859 -0.47196,4.95931"
         style="fill:none;fill-rule:evenodd;stroke:#000000;stroke-width:1px;stroke-linecap:butt;stroke-linejoin:miter;stroke-opacity:1" />
      <path
         sodipodi:nodetypes="cc"
         inkscape:connector-curvature="0"
         id="path4323"
         d="m 680.38868,710.68943 c 0.20561,-5.67281 4.12204,-9.42904 9.46429,-8.75"
         style="fill:none;fill-rule:evenodd;stroke:#000000;stroke-width:1px;stroke-linecap:butt;stroke-linejoin:miter;stroke-opacity:1" />
    </g>
  </g>
</svg>
