<?xml version="1.0" encoding="UTF-8" standalone="no"?>
<!-- Created with Inkscape (http://www.inkscape.org/) -->

<svg
   xmlns:dc="http://purl.org/dc/elements/1.1/"
   xmlns:cc="http://creativecommons.org/ns#"
   xmlns:rdf="http://www.w3.org/1999/02/22-rdf-syntax-ns#"
   xmlns:svg="http://www.w3.org/2000/svg"
   xmlns="http://www.w3.org/2000/svg"
   xmlns:sodipodi="http://sodipodi.sourceforge.net/DTD/sodipodi-0.dtd"
   xmlns:inkscape="http://www.inkscape.org/namespaces/inkscape"
   width="9.5973759mm"
   height="20.500711mm"
   viewBox="0 0 34.00645 72.640316"
   id="svg3407"
   version="1.1"
   inkscape:version="0.91 r13725"
   sodipodi:docname="config-5.svg">
  <defs
     id="defs3409" />
  <sodipodi:namedview
     id="base"
     pagecolor="#ffffff"
     bordercolor="#666666"
     borderopacity="1.0"
     inkscape:pageopacity="0.0"
     inkscape:pageshadow="2"
     inkscape:zoom="0.35"
     inkscape:cx="739.14609"
     inkscape:cy="-275.10841"
     inkscape:document-units="px"
     inkscape:current-layer="layer1"
     showgrid="false"
     fit-margin-top="0"
     fit-margin-left="0"
     fit-margin-right="0"
     fit-margin-bottom="0"
     inkscape:window-width="1366"
     inkscape:window-height="692"
     inkscape:window-x="0"
     inkscape:window-y="24"
     inkscape:window-maximized="1" />
  <metadata
     id="metadata3412">
    <rdf:RDF>
      <cc:Work
         rdf:about="">
        <dc:format>image/svg+xml</dc:format>
        <dc:type
           rdf:resource="http://purl.org/dc/dcmitype/StillImage" />
        <dc:title></dc:title>
      </cc:Work>
    </rdf:RDF>
  </metadata>
  <g
     inkscape:label="Layer 1"
     inkscape:groupmode="layer"
     id="layer1"
     transform="translate(685.57466,-184.61348)">
    <g
       id="g4389"
       transform="translate(-1199.1709,-472.33707)">
      <path
         sodipodi:nodetypes="cccccscc"
         inkscape:connector-curvature="0"
         id="path4285"
         d="m 521.5774,729.33483 c 0.22013,-17.35154 -4.60373,-8.95351 -6.73081,-19.36587 -1.07659,-18.66385 -2.12609,-24.12902 5.59217,-22.62242 1.99613,-7.67758 8.55018,-4.13276 8.55018,-4.13276 1.95751,-2.18207 3.269,-3.43064 6.73522,-2.45394 -0.24324,-17.95698 -0.60837,-23.15131 4.13952,-23.30778 4.267,-0.14063 4.32672,8.4402 4.729,24.25242 0.88713,12.58666 1.26828,17.43579 1.60592,21.93773"
         style="fill:none;fill-rule:evenodd;stroke:#000000;stroke-width:1px;stroke-linecap:butt;stroke-linejoin:miter;stroke-opacity:1" />
      <path
         sodipodi:nodetypes="cccccc"
         inkscape:connector-curvature="0"
         id="path4287"
         d="m 539.76368,729.52872 c -1.74439,-13.92694 10.90895,-12.71437 6.33929,-25.98214 -4.29916,-11.25731 -6.67089,-6.04126 -10.69107,-6.13554 -6.87731,0.5307 -6.4746,4.3239 -6.4746,4.3239 0.35928,1.93316 4.31945,2.85929 8.9023,3.05434 1.54714,1.17721 1.5741,3.76622 -0.75449,3.668"
         style="fill:none;fill-rule:evenodd;stroke:#000000;stroke-width:1px;stroke-linecap:butt;stroke-linejoin:miter;stroke-opacity:1" />
      <path
         sodipodi:nodetypes="cc"
         inkscape:connector-curvature="0"
         id="path4289"
         d="m 529.22797,700.42157 c 0,0 6.35945,0.72977 4.64285,-2.67857"
         style="fill:none;fill-rule:evenodd;stroke:#000000;stroke-width:1px;stroke-linecap:butt;stroke-linejoin:miter;stroke-opacity:1" />
      <path
         sodipodi:nodetypes="cc"
         inkscape:connector-curvature="0"
         id="path4291"
         d="m 533.24582,704.08229 c -4.87425,3.38953 -4.19836,9.12405 -3.57142,13.57143"
         style="fill:none;fill-rule:evenodd;stroke:#000000;stroke-width:1px;stroke-linecap:butt;stroke-linejoin:miter;stroke-opacity:1" />
      <path
         sodipodi:nodetypes="cc"
         inkscape:connector-curvature="0"
         id="path4293"
         d="m 535.68269,681.04658 c 10e-4,4.75646 0.595,11.34864 0.89286,16.25635"
         style="fill:none;fill-rule:evenodd;stroke:#000000;stroke-width:1px;stroke-linecap:butt;stroke-linejoin:miter;stroke-opacity:1" />
      <path
         sodipodi:nodetypes="cc"
         inkscape:connector-curvature="0"
         id="path4295"
         d="m 528.77071,683.25071 c -0.24841,3.98968 0.60105,11.41677 2.03918,14.99475"
         style="fill:none;fill-rule:evenodd;stroke:#000000;stroke-width:1px;stroke-linecap:butt;stroke-linejoin:miter;stroke-opacity:1" />
      <path
         sodipodi:nodetypes="cc"
         inkscape:connector-curvature="0"
         id="path4297"
         d="m 520.41932,687.35878 c -0.0179,4.59677 1.67618,19.9122 9.0765,14.40208"
         style="fill:none;fill-rule:evenodd;stroke:#000000;stroke-width:1px;stroke-linecap:butt;stroke-linejoin:miter;stroke-opacity:1" />
      <path
         sodipodi:nodetypes="cc"
         inkscape:connector-curvature="0"
         id="path4299"
         d="m 514.14766,696.76984 c 0.55114,5.64778 6.3567,12.10171 10.34816,5.16959"
         style="fill:none;fill-rule:evenodd;stroke:#000000;stroke-width:1px;stroke-linecap:butt;stroke-linejoin:miter;stroke-opacity:1" />
    </g>
  </g>
</svg>
