<?xml version="1.0" encoding="UTF-8" standalone="no"?>
<!-- Created with Inkscape (http://www.inkscape.org/) -->

<svg
   xmlns:dc="http://purl.org/dc/elements/1.1/"
   xmlns:cc="http://creativecommons.org/ns#"
   xmlns:rdf="http://www.w3.org/1999/02/22-rdf-syntax-ns#"
   xmlns:svg="http://www.w3.org/2000/svg"
   xmlns="http://www.w3.org/2000/svg"
   xmlns:sodipodi="http://sodipodi.sourceforge.net/DTD/sodipodi-0.dtd"
   xmlns:inkscape="http://www.inkscape.org/namespaces/inkscape"
   width="13.320827mm"
   height="14.816612mm"
   viewBox="0 0 47.199779 52.499807"
   id="svg3476"
   version="1.1"
   inkscape:version="0.91 r13725"
   sodipodi:docname="config-G-biere.svg">
  <defs
     id="defs3478" />
  <sodipodi:namedview
     id="base"
     pagecolor="#ffffff"
     bordercolor="#666666"
     borderopacity="1.0"
     inkscape:pageopacity="0.0"
     inkscape:pageshadow="2"
     inkscape:zoom="0.35"
     inkscape:cx="281.45703"
     inkscape:cy="-230.89295"
     inkscape:document-units="px"
     inkscape:current-layer="layer1"
     showgrid="false"
     inkscape:window-width="1366"
     inkscape:window-height="692"
     inkscape:window-x="0"
     inkscape:window-y="24"
     inkscape:window-maximized="1"
     fit-margin-top="0"
     fit-margin-left="0"
     fit-margin-right="0"
     fit-margin-bottom="0" />
  <metadata
          id="metadata5321">
    <rdf:RDF>
      <cc:Work
              rdf:about="">
        <dc:format>image/svg+xml</dc:format>
        <dc:type
                rdf:resource="http://purl.org/dc/dcmitype/StillImage" />
        <dc:title></dc:title>
        <cc:license
                rdf:resource="http://creativecommons.org/publicdomain/zero/1.0/" />
      </cc:Work>
      <cc:License
              rdf:about="http://creativecommons.org/publicdomain/zero/1.0/">
        <cc:permits
                rdf:resource="http://creativecommons.org/ns#Reproduction" />
        <cc:permits
                rdf:resource="http://creativecommons.org/ns#Distribution" />
        <cc:permits
                rdf:resource="http://creativecommons.org/ns#DerivativeWorks" />
      </cc:License>
    </rdf:RDF>
  </metadata>
  <g
     inkscape:label="Layer 1"
     inkscape:groupmode="layer"
     id="layer1"
     transform="translate(-93.542968,-248.96945)">
    <g
       id="g6202"
       transform="translate(-217.34246,-702.878)">
      <path
         sodipodi:nodetypes="cczccccc"
         inkscape:connector-curvature="0"
         id="path6029"
         d="m 318.92857,1004.3265 c -0.26289,-6.32678 -5.75216,-10.52912 -6.94961,-16.53929 -1.51698,-7.24816 0.29141,-14.8367 0.96269,-21.46005 0.67127,-6.62336 2.41916,-8.77884 6.76764,-9.98054 2.17424,-0.60085 3.77531,-0.6844 5.99995,-1.04308 1.85172,1.02113 3.53336,0.75063 5.38443,2.48322 4.36121,5.08357 -2.29702,6.89001 -6.4367,4.9188 -3.12262,0.88059 -6.40616,2.41579 -5.28197,8.5852"
         style="fill:none;fill-rule:evenodd;stroke:#000000;stroke-width:1px;stroke-linecap:butt;stroke-linejoin:miter;stroke-opacity:1" />
      <path
         sodipodi:nodetypes="ccc"
         inkscape:connector-curvature="0"
         id="path6031"
         d="m 326.43755,955.55666 c 3.51661,-2.63299 10.30021,-2.38153 12.01563,1.91324 0.81661,3.36514 -3.2165,5.20025 -6.11195,3.98858"
         style="fill:none;fill-rule:evenodd;stroke:#000000;stroke-width:1px;stroke-linecap:butt;stroke-linejoin:miter;stroke-opacity:1" />
      <path
         sodipodi:nodetypes="cc"
         inkscape:connector-curvature="0"
         id="path6033"
         d="m 326.51786,963.34433 c -0.34024,1.82834 -0.28268,4.32525 -0.0893,6.16071"
         style="fill:none;fill-rule:evenodd;stroke:#000000;stroke-width:1px;stroke-linecap:butt;stroke-linejoin:miter;stroke-opacity:1" />
      <path
         sodipodi:nodetypes="ccc"
         inkscape:connector-curvature="0"
         id="path6035"
         d="m 334.25322,953.88639 c 2.99239,-3.02455 12.71229,-1.4805 11.45024,4.02947 -0.26624,2.96411 -6.4324,1.61667 -8.20718,2.66061"
         style="fill:none;fill-rule:evenodd;stroke:#000000;stroke-width:1px;stroke-linecap:butt;stroke-linejoin:miter;stroke-opacity:1" />
      <path
         sodipodi:nodetypes="cczcccccc"
         inkscape:connector-curvature="0"
         id="path6037"
         d="m 345.36612,954.67278 c 6.7739,-1.00391 8.11464,6.78409 0.18407,5.4889 -6.77979,-0.47114 -7.21607,9.60153 -6.41651,14.06117 0.79955,4.45963 7.15749,9.85994 11.88956,3.54604 -0.89454,-2.85832 0.1836,-9.94874 6.04198,-9.08344 1.60867,3.89392 -1.17219,8.32153 0.17873,12.28283 1.12144,4.8341 -5.23354,7.22049 -9.57428,9.88429 -3.27085,1.63511 -5.13115,4.93816 -9.56768,7.08088 -0.49672,1.56943 -0.27275,4.29415 -0.33417,5.94655"
         style="fill:none;fill-rule:evenodd;stroke:#000000;stroke-width:1px;stroke-linecap:butt;stroke-linejoin:miter;stroke-opacity:1" />
      <path
         inkscape:connector-curvature="0"
         id="path6039"
         d="m 320.53571,980.04076 c 2.05377,6.0203 11.35583,6.2842 11.79219,13.3684 l -0.006,1.09588"
         style="fill:none;fill-rule:evenodd;stroke:#000000;stroke-width:1px;stroke-linecap:butt;stroke-linejoin:miter;stroke-opacity:1" />
      <path
         sodipodi:nodetypes="cc"
         inkscape:connector-curvature="0"
         id="path6041"
         d="m 344.15047,980.15434 c -0.16653,1.99642 -0.37761,5.15358 0.67096,6.8507"
         style="fill:none;fill-rule:evenodd;stroke:#000000;stroke-width:1px;stroke-linecap:butt;stroke-linejoin:miter;stroke-opacity:1" />
      <path
         sodipodi:nodetypes="cc"
         inkscape:connector-curvature="0"
         id="path6043"
         d="m 332.85714,961.82461 c -0.62808,1.77731 -0.52328,4.76142 -0.71428,6.609"
         style="fill:none;fill-rule:evenodd;stroke:#000000;stroke-width:1px;stroke-linecap:butt;stroke-linejoin:miter;stroke-opacity:1" />
      <path
         sodipodi:nodetypes="cc"
         inkscape:connector-curvature="0"
         id="path6134"
         d="m 329.24107,956.69254 c -2.35353,1.43132 1.41469,4.90974 2.90194,2.81266"
         style="fill:none;fill-rule:evenodd;stroke:#000000;stroke-width:1px;stroke-linecap:butt;stroke-linejoin:miter;stroke-opacity:1" />
      <path
         sodipodi:nodetypes="cc"
         inkscape:connector-curvature="0"
         id="path6136"
         d="m 335,954.41575 c -3.49299,1.10268 1.56974,5.43618 3.1698,2.94661"
         style="fill:none;fill-rule:evenodd;stroke:#000000;stroke-width:1px;stroke-linecap:butt;stroke-linejoin:miter;stroke-opacity:1" />
      <path
         sodipodi:nodetypes="cc"
         inkscape:connector-curvature="0"
         id="path6138"
         d="m 343.16965,953.43361 c -1.88006,1.01385 0.26823,4.42462 2.50005,3.25911"
         style="fill:none;fill-rule:evenodd;stroke:#000000;stroke-width:1px;stroke-linecap:butt;stroke-linejoin:miter;stroke-opacity:1" />
      <path
         sodipodi:nodetypes="cc"
         inkscape:connector-curvature="0"
         id="path6140"
         d="m 347.5,954.68361 c -1.58967,2.02687 1.75922,3.8237 3.39314,2.18753"
         style="fill:none;fill-rule:evenodd;stroke:#000000;stroke-width:1px;stroke-linecap:butt;stroke-linejoin:miter;stroke-opacity:1" />
    </g>
  </g>
</svg>
